<?xml version="1.0" encoding="UTF-8"?>
<svg width="47px" height="52px" viewBox="0 0 47 52" version="1.1" xmlns="http://www.w3.org/2000/svg" xmlns:xlink="http://www.w3.org/1999/xlink">
    <g id="User's-App" stroke="none" stroke-width="1" fill="none" fill-rule="evenodd">
        <g id="User-type" transform="translate(-70.000000, -279.000000)" fill-rule="nonzero">
            <g id="Contractor" transform="translate(70.000000, 279.000000)">
                <path d="M32.899959,35.0610786 C29.886952,35.0610786 28.4465812,36.7549708 23.5,36.7549708 C18.5534188,36.7549708 17.113048,35.0610786 14.1042415,35.0610786 L14.100041,35.0610786 C6.31677246,35.0610786 0,41.4355057 0,49.2898139 C0,50.7858234 1.20319475,52 2.6856733,52 L44.3143267,52 C45.7968052,52 47,50.7858234 47,49.2898139 C47,41.4355057 40.6832275,35.0610786 32.899959,35.0610786 Z" id="Path" fill="#FA8E50"></path>
                <path d="M3.37814549,48.6122157 C3.73314122,43.0070911 8.5383388,38.4538255 14.1042415,38.4488629 C16.1835022,38.4488629 18.1873583,40.142755 23.5,40.142755 C28.8504464,40.142755 30.8017447,38.4488629 32.899959,38.4488629 C38.46412,38.4555831 43.2674735,43.0087453 43.6218545,48.6122157 L3.37814549,48.6122157 Z" id="Path" fill="#FA8E50"></path>
                <path d="M9.23214286,16.9389214 L10.5603289,16.9389214 C10.3037894,17.8560672 10.0848498,19.3737879 10.0714286,20.3267056 C10.0714286,27.8069598 16.0874023,33.8778427 23.5,33.8778427 C30.9125977,33.8778427 36.9285714,27.8069598 36.9285714,20.3267056 C36.9151502,19.3737879 36.6962106,17.8560672 36.4396711,16.9389214 L37.7678571,16.9389214 C38.2311445,16.9389214 38.6071429,16.5594912 38.6071429,16.0919753 L38.6071429,14.3980832 C38.6071429,13.9305673 38.2311445,13.5511371 37.7678571,13.5511371 L36.9285714,13.5511371 C36.9285714,8.09685404 33.2566964,3.55082553 28.2912641,2.16823156 C27.8385293,0.975662848 26.4440569,0.00434225279 25.1785714,0 L21.8214286,0 C20.5559431,0.00434225279 19.1614707,0.975662848 18.7087359,2.16823156 C13.7433036,3.55082553 10.0714286,8.09685404 10.0714286,13.5511371 L9.23214286,13.5511371 C8.7688555,13.5511371 8.39285714,13.9305673 8.39285714,14.3980832 L8.39285714,16.0919753 C8.39285714,16.5594912 8.7688555,16.9389214 9.23214286,16.9389214 Z" id="Path" fill="#91949B"></path>
                <path d="M28.5357143,5.81324262 C31.3081643,7.03258856 33.5641545,10.4991537 33.5714286,13.5511371 L28.5357143,13.5511371 L28.5357143,5.81324262 Z" id="Path" fill="#FFFFFF"></path>
                <polygon id="Path" fill="#FFFFFF" points="21.8214286 3.38778427 25.1785714 3.38778427 25.1785714 13.5511371 21.8214286 13.5511371"></polygon>
                <path d="M13.4285714,13.5511371 C13.4358455,10.4991537 15.6918357,7.03258856 18.4642857,5.81324262 L18.4642857,13.5511371 L13.4285714,13.5511371 Z" id="Path" fill="#FFFFFF"></path>
                <path d="M14.0580357,16.9389214 L32.9419643,16.9389214 C33.2823094,17.8424201 33.5642569,19.3601409 33.5714286,20.3267056 C33.5714286,25.9368963 29.0594482,30.4900585 23.5,30.4900585 C17.9405518,30.4900585 13.4285714,25.9368963 13.4285714,20.3267056 C13.4357431,19.3601409 13.7176906,17.8424201 14.0580357,16.9389214 Z" id="Path" fill="#FFFFFF"></path>
            </g>
        </g>
    </g>
</svg>