<?xml version="1.0" encoding="UTF-8"?>
<svg width="43px" height="43px" viewBox="0 0 43 43" version="1.1" xmlns="http://www.w3.org/2000/svg" xmlns:xlink="http://www.w3.org/1999/xlink">
    <g id="User's-App" stroke="none" stroke-width="1" fill="none" fill-rule="evenodd">
        <g id="User-type" transform="translate(-70.000000, -443.000000)" fill-rule="nonzero">
            <g id="DIYer" transform="translate(70.000000, 443.000000)">
                <path d="M17.0633462,7.31937195 L17.0633462,11.0362556 L19.325778,13.2982797 C18.8077984,10.6477724 19.5923927,7.94393515 21.4967841,6.03982441 C23.0431349,4.49370136 25.0922897,3.66347932 27.209958,3.66347932 L27.3013837,3.66347932 L22.9288714,8.02009958 L24.079094,14.9206416 L30.9806528,16.0706947 L35.3455028,11.7064877 C35.3683406,13.8619262 34.5380707,15.9336136 32.9688076,17.5025711 C32.2603889,18.2108854 31.4300445,18.7516975 30.5464367,19.1477674 C30.683538,19.2696007 30.8435515,19.3685996 30.9729906,19.498094 L33.311598,21.8363569 C34.1114424,21.3565359 34.8731989,20.7776416 35.551192,20.0921617 C38.4534546,17.1903267 39.6418394,12.9098709 38.6515559,8.92648605 C38.4230289,7.99726513 37.7069481,7.26611636 36.7928402,7.00712754 C35.8634824,6.74813873 34.8731989,7.01471423 34.202868,7.69260741 L29.7313423,12.1558132 L27.2632958,11.74457 L26.8519176,9.27681267 L31.315781,4.81360684 C31.9937741,4.13571366 32.2528011,3.14557608 31.9937741,2.22401623 C31.7424093,1.302382 31.0034906,0.586480985 30.0741328,0.357987696 C26.0215732,-0.647397653 21.8548245,0.510316556 18.9068119,3.45023379 C18.1298053,4.22712585 17.4975623,5.1030168 16.9795827,6.03223772 L17.0633462,6.09315438 L17.0633462,7.31937195 Z" id="Path" fill="#91949B"></path>
                <path d="M8.07461918,34.5786511 C7.0995857,35.553541 5.38563352,35.553541 4.41060004,34.5786511 C3.92304611,34.091169 3.64884352,33.4361847 3.64884352,32.7507048 C3.64884352,32.0576383 3.9154583,31.4102406 4.41060004,30.9227585 L14.6485631,20.6862294 L12.0662531,18.1042998 L1.82821566,28.3331679 C0.647493047,29.5137165 0,31.0826741 0,32.7507048 C0,34.4187356 0.647493047,35.9876931 1.82821566,37.1682417 C3.00893828,38.3487904 4.57812697,38.9961881 6.24640352,38.9961881 C7.91468006,38.9961881 9.48386875,38.3487904 10.6645914,37.1682417 L18.3507445,29.483221 C17.6118258,28.2798379 17.1928597,26.9088782 17.1547719,25.515084 L8.07461918,34.5786511 Z" id="Path" fill="#91949B"></path>
                <path d="M42.0866246,33.2293854 L32.2515994,23.3957271 C30.3114969,21.4559105 27.4138923,21.0780177 25.0789453,22.2285076 L16.1257997,13.2765991 L16.1257997,8.06171195 L5.37526657,0 L0,5.37447464 L8.06289985,16.1234239 L13.2785554,16.1234239 L22.231783,25.0752504 C21.0894896,27.4098534 21.459072,30.3070312 23.3991745,32.2468478 L33.2342817,42.0804241 C34.4604816,43.3065253 36.4426603,43.3065253 37.6604942,42.0804241 L42.0866246,37.6549457 C43.3044585,36.4288445 43.3044585,34.4470398 42.0866246,33.2293854 Z" id="Path" fill="#FA8E50"></path>
            </g>
        </g>
    </g>
</svg>