<?xml version="1.0" encoding="UTF-8"?>
<svg width="136px" height="106px" viewBox="0 0 136 106" version="1.1" xmlns="http://www.w3.org/2000/svg" xmlns:xlink="http://www.w3.org/1999/xlink">
    <g id="Runner's-Sign-up" stroke="none" stroke-width="1" fill="none" fill-rule="evenodd">
        <g id="Verify-ID" transform="translate(-125.000000, -237.000000)" fill-rule="nonzero">
            <g id="License" transform="translate(125.447368, 237.500000)">
                <path d="M82.5,75 L112.5,75 C114.570937,75 116.25,73.3209372 116.25,71.25 C116.25,69.1790628 114.562497,67.5 112.5,67.5 L82.5,67.5 C80.4290628,67.5 78.75,69.1790628 78.75,71.25 C78.75,73.3209372 80.4375029,75 82.5,75 Z" id="Path" fill="#0E1423"></path>
                <path d="M120,0 L15,0 C6.71484232,0 0,6.71484232 0,15 L0,90 C0,98.2851577 6.71484232,105 15,105 L120,105 C128.285151,105 135,98.2851577 135,90 L135,15 C135,6.71484232 128.273435,0 120,0 Z" id="Path" fill="#FA8E50"></path>
                <path d="M127.5,90 C127.5,94.1343784 124.134378,97.5 120,97.5 L15,97.5 C10.8656251,97.5 7.5,94.1343784 7.5,90 L7.5,22.5 L127.5,22.5 L127.5,90 Z" id="Path" fill="#FFFFFF"></path>
                <path d="M7.5,15 C7.5,10.8656216 10.8656251,7.5 15,7.5 L120,7.5 C124.134378,7.5 127.5,10.8656216 127.5,15 L7.5,15 Z" id="Path" fill="#FFFFFF"></path>
                <path d="M82.5,45 L112.5,45 C114.570937,45 116.25,43.3209372 116.25,41.25 C116.25,39.1790628 114.562497,37.5 112.5,37.5 L82.5,37.5 C80.4290628,37.5 78.75,39.1790628 78.75,41.25 C78.75,43.3209372 80.4375029,45 82.5,45 Z" id="Path" fill="#91949B"></path>
                <path d="M82.5,60 L112.5,60 C114.570937,60 116.25,58.3209372 116.25,56.25 C116.25,54.1790628 114.562497,52.5 112.5,52.5 L82.5,52.5 C80.4290628,52.5 78.75,54.1790628 78.75,56.25 C78.75,58.3209372 80.4375029,60 82.5,60 Z" id="Path" fill="#91949B"></path>
                <path d="M45,60 C53.2851577,60 60,53.2851577 60,45 C60,36.7148423 53.2734382,30 45,30 C36.7265618,30 30,36.7265654 30,45 C30,53.2734346 36.7265618,60 45,60 Z" id="Path" fill="#91949B"></path>
                <path d="M45,37.5 C49.1343749,37.5 52.5,40.8656251 52.5,45 C52.5,49.1343749 49.1250014,52.5 45,52.5 C40.8749986,52.5 37.5,49.1250014 37.5,45 C37.5,40.8749986 40.8749986,37.5 45,37.5 Z" id="Path" fill="#FFFFFF"></path>
                <path d="M22.5,90 C24.5709372,90 26.2499964,88.3209372 26.2499964,86.25 C26.2499964,80.0390625 31.2890625,75 37.5,75 L52.5,75 C58.71328,75 63.7499964,80.0367165 63.7499964,86.25 C63.7499964,88.3209372 65.4290628,90 67.5,90 C69.5709372,90 71.2499964,88.3209372 71.2499964,86.25 C71.2499964,75.8953142 62.8546858,67.5 52.5,67.5 L37.5,67.5 C27.1453106,67.5 18.7499964,75.8953142 18.7499964,86.25 C18.7499964,88.3124971 20.4281223,90 22.4999964,90 L22.5,90 Z" id="Path" fill="#91949B"></path>
            </g>
        </g>
    </g>
</svg>