<?xml version="1.0" encoding="UTF-8"?>
<svg width="56px" height="72px" viewBox="0 0 56 72" version="1.1" xmlns="http://www.w3.org/2000/svg" xmlns:xlink="http://www.w3.org/1999/xlink">
    <g id="App" stroke="none" stroke-width="1" fill="none" fill-rule="evenodd">
        <g id="Order-recieved" transform="translate(-185.000000, -208.000000)">
            <g id="Group-4" transform="translate(189.473684, 210.500125)">
                <circle id="Oval" fill="#FA8E50" cx="23.5263158" cy="24.4998748" r="20"></circle>
                <path d="M31.3091643,32.9998689 C31.6541647,32.9998689 31.9341628,32.7198708 31.9341628,32.3748704 L31.9341628,21.9729405 L33.008379,22.8553542 C33.104471,22.9356915 33.2840665,23.0009227 33.4093409,23.0009227 C33.570397,23.0009227 33.7850495,22.9007108 33.8884657,22.7772294 L34.2892369,22.2967694 C34.3696887,22.2006774 34.434958,22.0209674 34.434958,21.8956168 C34.434958,21.7336451 34.3337924,21.5181915 34.2091666,21.4147372 L24.5853568,13.5077278 C24.2493591,13.2274246 23.6215377,12.9999166 23.183993,12.9999166 C22.7464101,12.9999166 22.1186269,13.2274246 21.7826291,13.5077278 L12.1592008,21.4147372 C12.0356431,21.5181534 11.9353549,21.7328822 11.9353549,21.8940146 C11.9353549,22.0193653 12.0006242,22.1991134 12.081076,22.2952054 L12.4810842,22.7756653 C12.5845004,22.8991468 12.7991529,22.9993587 12.9602091,22.9993587 C13.0854453,22.9993587 13.2650789,22.9341275 13.3611709,22.8537902 L14.4342046,21.9729405 L14.4342046,24.2498897 L14.422112,24.2498897 L14.422112,32.3748704 C14.4248586,32.7192223 14.7066114,32.9992585 15.0510015,32.9998689 L31.3091643,32.9998689 Z M20.6841897,31.1248733 L16.2971075,31.1248733 L16.2971075,20.5967918 L16.3092001,20.5870261 L16.3092001,20.4307765 L23.1841837,14.7831307 L30.0591673,20.4323024 L30.0591673,21.7498957 L30.0509657,21.7498957 L30.0509657,31.1248733 L25.6841777,31.1248733 L25.6841777,25.4998868 C25.6841777,24.809886 25.1241815,24.2498897 24.4341807,24.2498897 L21.9341867,24.2498897 C21.2441859,24.2498897 20.6841897,24.809886 20.6841897,25.4998868 L20.6841897,31.1248733 Z" id="home-lg-alt" fill="#FFFFFF" fill-rule="nonzero"></path>
            </g>
        </g>
    </g>
</svg>