<?xml version="1.0" encoding="UTF-8"?>
<svg width="15px" height="22px" viewBox="0 0 15 22" version="1.1" xmlns="http://www.w3.org/2000/svg" xmlns:xlink="http://www.w3.org/1999/xlink">

    <g id="App" stroke="none" stroke-width="1" fill="none" fill-rule="evenodd">
        <g id="Product-Details" transform="translate(-304.000000, -207.000000)">
            <g id="Group-5" transform="translate(304.000000, 207.000000)">
                <polygon id="Fill-1" fill="#FA8E50" points="9.96628004 6.56780016 9.96628004 7.81936958 13.7841868 7.81936958 13.7841868 20.7484306 1.21581323 20.7484306 1.21581323 7.81936958 5.03292364 7.81936958 5.03292364 6.56780016 0 6.56780016 0 22 15 22 15 6.56780016"></polygon>
                <g id="Group-4" transform="translate(3.775290, 0.000000)">
                    <g id="Clip-3"></g>
                    <path d="M1.03816561,4.53307964 C0.800752933,4.77732 0.41544473,4.77732 0.17805951,4.53307964 C-0.0593531699,4.28883928 -0.0593531699,3.89329758 0.17805951,3.64902897 C1.36037246,2.43268598 2.54274032,1.21634299 3.72431187,0 C4.90665228,1.21634299 6.08899268,2.43268598 7.27136055,3.64902897 C7.50877323,3.89329758 7.50877323,4.28883928 7.27136055,4.53307964 C7.03397533,4.77732 6.64863967,4.77732 6.41125445,4.53307964 L4.33300108,2.39503014 L4.33300108,14.2839086 C4.33300108,14.6290541 4.06055039,14.9093119 3.72431187,14.9093119 C3.38881475,14.9093119 3.11641898,14.6290541 3.11641898,14.2839086 L3.11641898,2.39503014 L1.03816561,4.53307964 Z" id="Fill-2" fill="#FA8E50" mask="url(#mask-2)"></path>
                </g>
            </g>
        </g>
    </g>
</svg>